<global>
amp_veltrack=0
ampeg_release=5.0

<group>
group_label=RR1
seq_length=4
seq_position=1

<region>
hivel=100
key=D4
lovel=76
offset=5639
sample=SmallCym_Sticks_Hit_Damped_F_D4_RR1.opus

<region>
hivel=127
key=D4
lovel=101
offset=6116
sample=SmallCym_Sticks_Hit_Damped_FF_D4_RR1.opus

<region>
hivel=75
key=D4
lovel=51
offset=5505
sample=SmallCym_Sticks_Hit_Damped_MF_D4_RR1.opus

<region>
hivel=50
key=D4
lovel=26
offset=3314
sample=SmallCym_Sticks_Hit_Damped_MP_D4_RR1.opus

<region>
hivel=25
key=D4
lovel=0
offset=1737
sample=SmallCym_Sticks_Hit_Damped_P_D4_RR1.opus

<group>
group_label=RR2
seq_length=4
seq_position=2

<region>
hivel=100
key=D4
lovel=76
offset=5623
sample=SmallCym_Sticks_Hit_Damped_F_D4_RR2.opus

<region>
hivel=127
key=D4
lovel=101
offset=5849
sample=SmallCym_Sticks_Hit_Damped_FF_D4_RR2.opus

<region>
hivel=75
key=D4
lovel=51
offset=5472
sample=SmallCym_Sticks_Hit_Damped_MF_D4_RR2.opus

<region>
hivel=50
key=D4
lovel=26
offset=3952
sample=SmallCym_Sticks_Hit_Damped_MP_D4_RR2.opus

<region>
hivel=25
key=D4
lovel=0
offset=755
sample=SmallCym_Sticks_Hit_Damped_P_D4_RR2.opus

<group>
group_label=RR3
seq_length=4
seq_position=3

<region>
hivel=100
key=D4
lovel=76
offset=5625
sample=SmallCym_Sticks_Hit_Damped_F_D4_RR3.opus

<region>
hivel=127
key=D4
lovel=101
offset=5771
sample=SmallCym_Sticks_Hit_Damped_FF_D4_RR3.opus

<region>
hivel=75
key=D4
lovel=51
offset=5573
sample=SmallCym_Sticks_Hit_Damped_MF_D4_RR3.opus

<region>
hivel=50
key=D4
lovel=26
offset=3864
sample=SmallCym_Sticks_Hit_Damped_MP_D4_RR3.opus

<region>
hivel=25
key=D4
lovel=0
offset=708
sample=SmallCym_Sticks_Hit_Damped_P_D4_RR3.opus

<group>
group_label=RR4
seq_length=4
seq_position=4

<region>
hivel=100
key=D4
lovel=76
offset=5624
sample=SmallCym_Sticks_Hit_Damped_F_D4_RR4.opus

<region>
hivel=127
key=D4
lovel=101
offset=6005
sample=SmallCym_Sticks_Hit_Damped_FF_D4_RR4.opus

<region>
hivel=75
key=D4
lovel=51
offset=5494
sample=SmallCym_Sticks_Hit_Damped_MF_D4_RR4.opus

<region>
hivel=50
key=D4
lovel=26
offset=5481
sample=SmallCym_Sticks_Hit_Damped_MP_D4_RR4.opus

<region>
hivel=25
key=D4
lovel=0
offset=1316
sample=SmallCym_Sticks_Hit_Damped_P_D4_RR4.opus

